<svg width="24" height="20" viewBox="0 0 24 20" fill="none" xmlns="http://www.w3.org/2000/svg">
<path d="M13.0516 3.5986C12.6055 3.55005 12.1523 3.52223 11.6928 3.51531C9.68506 3.52427 7.60377 4.01562 5.63373 4.95713C4.171 5.68499 2.74613 6.71253 1.5087 7.98003C0.90097 8.62706 0.125327 9.56393 0 10.5635C0.0148109 11.4294 0.938406 12.4981 1.5087 13.147C2.66908 14.3647 4.05684 15.3628 5.63373 16.1699C5.68732 16.1961 5.74111 16.2219 5.79501 16.2474L4.33201 18.818L6.31988 20L17.0659 1.17658L15.1524 0L13.0516 3.5986ZM17.5892 4.88245L16.129 7.42856C16.8007 8.30661 17.1995 9.38939 17.1995 10.5635C17.1995 13.49 14.7338 15.8626 11.6914 15.8626C11.5598 15.8626 11.4324 15.8483 11.3031 15.8396L10.3368 17.5227C10.7825 17.5707 11.2331 17.6057 11.6928 17.6117C13.7025 17.6026 15.7826 17.1056 17.7504 16.1699C19.2132 15.442 20.6395 14.4145 21.8769 13.147C22.4846 12.5 23.2602 11.5631 23.3856 10.5635C23.3708 9.69763 22.4472 8.62889 21.8769 7.98001C20.7165 6.76229 19.3273 5.76416 17.7504 4.95709C17.6972 4.93113 17.6427 4.90778 17.5892 4.88245ZM11.6914 5.26445C11.8248 5.26445 11.9572 5.26983 12.0882 5.27881L10.9563 7.25051C9.36775 7.57454 8.17583 8.93437 8.17583 10.5621C8.17583 10.971 8.25068 11.3624 8.3885 11.7253C8.38865 11.7257 8.38834 11.7263 8.3885 11.7267L7.25375 13.7042C6.58042 12.8253 6.18323 11.739 6.18323 10.5635C6.18325 7.63703 8.64894 5.26443 11.6914 5.26445ZM14.9843 9.42183L12.4336 13.8679C14.0136 13.5378 15.1969 12.1841 15.1969 10.5621C15.1969 10.1606 15.1173 9.779 14.9843 9.42183Z" fill="#BDBDBD"/>
</svg>
