<svg width="17" height="13" viewBox="0 0 17 13" fill="none" xmlns="http://www.w3.org/2000/svg">
<path d="M3.86366 12.7534V6.18517L1.82664 4.3216L0 3.28745V11.5943C0 12.2357 0.519631 12.7534 1.15912 12.7534H3.86366Z" fill="#4285F4"/>
<path d="M13.1364 12.7534H15.8409C16.4823 12.7534 17 12.2337 17 11.5943V3.28752L14.9311 4.47201L13.1364 6.18516V12.7534Z" fill="#34A853"/>
<path d="M3.86359 6.18514L3.58641 3.61873L3.86359 1.16242L8.49996 4.63973L13.1363 1.16242L13.4464 3.48612L13.1363 6.18514L8.49996 9.66245L3.86359 6.18514Z" fill="#EA4335"/>
<path d="M13.1364 1.16242V6.18514L17 3.28743V1.74195C17 0.308565 15.3638 -0.508567 14.2182 0.351065L13.1364 1.16242Z" fill="#FBBC04"/>
<path d="M0 3.2874L1.77697 4.62017L3.86366 6.18511V1.16239L2.78177 0.351035C1.63426 -0.508664 0 0.308534 0 1.74185V3.28733V3.2874Z" fill="#C5221F"/>
</svg>
